<svg width="25" height="13" viewBox="0 0 25 13" fill="none" xmlns="http://www.w3.org/2000/svg">
<path d="M16.2332 0.358094C16.5877 -0.0653751 17.2184 -0.12127 17.6419 0.233262C18.7388 1.15163 19.5171 1.76881 20.5108 2.5015L21.3048 3.07918L22.8944 4.21004C24.4241 5.29841 24.8079 5.66334 24.9656 6.41548C25.15 7.29411 24.7933 7.8383 23.6915 8.77393L23.3185 9.08325L21.8048 10.2919L20.9592 10.9779C20.2693 11.5463 19.602 12.1173 18.8994 12.7455C18.4876 13.1136 17.8555 13.0783 17.4874 12.6666C17.1193 12.2548 17.1546 11.6226 17.5663 11.2545C18.4707 10.446 19.3183 9.72927 20.2235 8.99669L21.5839 7.91101C19.7047 7.86554 17.7624 7.8789 14.9406 7.94099L9.64838 8.06833C6.46689 8.13456 4.40067 8.13456 2.18329 8.05209L0.951115 7.99884C-0.348534 7.93538 -0.301256 6.00003 0.999944 6.00003L21.9559 6L21.8764 5.9417L20.7809 5.16333C19.1538 4.00547 18.2239 3.30823 16.9352 2.24652L16.358 1.76679C15.9345 1.41225 15.8787 0.781562 16.2332 0.358094Z" fill="#33353A"/>
</svg>
