<svg width="86" height="133" viewBox="0 0 86 133" fill="none" xmlns="http://www.w3.org/2000/svg">
<path fill-rule="evenodd" clip-rule="evenodd" d="M11.1781 131.554C11.4431 131.864 11.9955 132.06 12.5075 132.101C12.5647 132.266 12.6194 132.434 12.6642 132.607C13.2503 132.357 13.7741 132.159 14.2461 131.982H14.2462C15.1488 131.641 15.8624 131.371 16.4605 130.947C18.4624 129.526 20.4234 128.022 22.2271 126.372C24.6098 124.19 26.8724 121.878 29.0709 119.518C29.475 119.086 29.5765 118.072 29.3539 117.498C29.1939 117.086 28.0455 116.585 27.708 116.77C26.1923 117.599 24.6879 118.527 23.4014 119.658C20.7122 122.026 18.0952 124.471 15.4785 126.917C15.3692 127.019 15.2599 127.121 15.1505 127.223C14.2211 120.896 15.3228 114.744 17.554 108.911C18.8646 105.484 20.5589 102.205 22.2533 98.9258L22.2534 98.9257C23.0269 97.4288 23.8005 95.9317 24.5377 94.4205C24.8343 93.8122 25.1105 93.1916 25.3866 92.5712L25.3867 92.5711C25.9168 91.3798 26.4467 90.1893 27.1207 89.0872C27.9471 87.7352 28.8629 86.4392 29.7789 85.1426C30.5154 84.1004 31.2521 83.0577 31.9426 81.9856C35.9964 75.6931 41.3922 70.6596 46.9315 65.7683C48.2618 64.5931 49.0457 64.4881 49.4844 66.8486C49.7184 68.1068 49.8881 69.373 50.0578 70.6384C50.5826 74.5529 51.1065 78.4599 53.5261 82.1034C57.4854 88.0649 61.8702 92.0467 69.4324 91.9221C74.8503 91.8334 80.0444 89.6088 82.9627 83.7015C89.0748 71.3276 81.728 59.9512 69.3828 56.6134C64.7082 55.3491 60.0785 55.6208 55.4894 57.0862L55.3554 57.1293C54.2545 57.4841 53.0906 57.8594 53.4279 55.8292C53.5556 55.0614 53.6609 54.2862 53.7663 53.511C54.0154 51.6791 54.2646 49.8465 54.8073 48.1074C56.4423 42.8692 58.2725 37.6834 60.2627 32.5709C61.27 29.9848 62.7006 27.5448 64.1174 25.145C64.4135 24.6437 64.7085 24.1412 65.0036 23.6385C66.9174 20.3792 68.8366 17.1105 71.0584 14.0722C72.8709 11.5937 74.8923 9.27035 76.9139 6.94653L76.9141 6.9464C77.8773 5.83925 78.8406 4.732 79.7815 3.60785L79.7887 3.59924C80.1208 3.20215 80.5089 2.738 80.5761 2.26391C80.6492 1.74604 80.5946 1.2103 80.5399 0.674807C80.517 0.449376 80.4939 0.223989 80.4805 0C80.2628 0.0384562 80.022 0.0525679 79.7812 0.0666791C79.2613 0.0971511 78.7414 0.127621 78.4538 0.403223C75.449 3.2826 72.4585 6.18692 69.6468 9.25358C68.783 10.1961 68.0717 11.2768 67.3593 12.3593H67.3592C66.8677 13.106 66.3757 13.8534 65.8327 14.5571C65.3376 15.1988 64.8236 15.8219 64.3105 16.4442C62.6666 18.4375 61.0306 20.4213 60.0474 22.9751C59.5167 24.3524 58.6739 25.6077 57.831 26.8631V26.8632C56.996 28.1071 56.1608 29.3511 55.6287 30.7145C53.873 35.211 52.4238 39.8651 51.2956 44.5621C50.5777 47.5523 50.1473 50.6124 49.7169 53.6724C49.5281 55.0154 49.3392 56.3583 49.126 57.6953C49.095 57.8888 49.0877 58.1072 49.0805 58.3253C49.0652 58.7844 49.0498 59.2419 48.814 59.462C48.597 59.6647 48.3801 59.8678 48.1631 60.071L48.163 60.0711C46.2314 61.88 44.2901 63.6982 42.1645 65.2521C37.0443 68.9952 32.4974 73.3931 29.0914 78.6574C23.5985 87.1448 18.8184 96.0344 15.1572 105.566C13.1544 110.783 11.511 115.866 11.5253 121.486C11.6089 122.185 11.6846 122.887 11.7604 123.589C11.8675 124.581 11.9747 125.574 12.1041 126.561C11.9595 126.33 11.8099 126.102 11.6546 125.88C9.60294 122.939 7.46572 120.061 5.32872 117.184H5.32827L5.32414 117.178C4.82972 116.513 4.33531 115.847 3.84197 115.181C3.76358 115.075 3.68508 114.965 3.60562 114.852H3.60552C3.21311 114.3 2.79773 113.715 2.26019 113.488C1.87393 113.324 1.37194 113.448 0.815618 113.584H0.815508C0.553578 113.649 0.279605 113.716 -7.62939e-06 113.758C0.18349 114.369 0.322332 114.914 0.447464 115.404C0.686759 116.342 0.875913 117.084 1.23133 117.727C2.42066 119.879 3.69689 122 5.13566 123.979C7.03655 126.594 9.08122 129.103 11.1781 131.554ZM55.3108 61.4031C60.7483 59.5732 65.9994 58.815 71.6807 61.5633C77.1545 64.2114 80.1995 68.1811 81.4586 73.8327C82.3434 77.8071 79.1152 84.532 75.4357 86.319C73.8576 87.085 72.1895 87.6643 70.5372 88.238L70.5371 88.2381H70.5369C69.7977 88.4948 69.0616 88.7504 68.338 89.0212C67.7216 88.8196 67.1104 88.6693 66.5253 88.5255C65.3102 88.2267 64.2072 87.9556 63.4027 87.3095C63.1684 87.1214 62.9312 86.9326 62.6926 86.7426L62.6907 86.7411C60.4006 84.9175 57.9766 82.9874 56.6813 80.5385C55.5255 78.3537 55.0627 75.7938 54.6012 73.2406C54.4206 72.2417 54.2402 71.2438 54.0186 70.2699C53.8702 69.6182 53.7784 68.9524 53.6866 68.2871V68.287C53.5746 67.4748 53.4627 66.6635 53.2483 65.8795C52.6587 63.7259 53.2831 62.0859 55.3108 61.4031Z" fill="black"/>
</svg>
