<svg width="105" height="18" viewBox="0 0 105 18" fill="none" xmlns="http://www.w3.org/2000/svg">
<path fill-rule="evenodd" clip-rule="evenodd" d="M7.003 15.2612C9.28304 15.2612 11.0539 13.4534 11.0539 10.7446V0.228516H13.5008V17.2708H11.0822V15.659C9.94027 16.8794 8.36508 17.5633 6.72294 17.5516C3.2067 17.5516 0.499512 14.9014 0.499512 10.8821V0.228516H2.99171V10.7593C2.99171 13.4826 4.68901 15.2612 7.003 15.2612ZM22.307 4.59878C20.7125 4.60016 19.1848 5.26052 18.0637 6.43289V0.228516H15.7016V17.2708H18.0354V15.697C19.166 16.8797 20.7044 17.5499 22.3126 17.5604C24.5835 17.6103 26.7027 16.3861 27.8523 14.3604C29.0019 12.3347 29.0019 9.8245 27.8523 7.79878C26.7027 5.77309 24.5835 4.54889 22.3126 4.59878H22.307ZM41.9137 11.0664C41.9137 7.36601 39.3677 4.59878 35.9222 4.59878C34.2779 4.61032 32.706 5.29947 31.5548 6.51352C30.4036 7.72757 29.7681 9.36619 29.7893 11.0664C29.7893 14.7639 32.5474 17.5604 36.1457 17.5604C38.1854 17.6002 40.1164 16.6116 41.3224 14.9101L39.6082 13.6113C38.8099 14.7635 37.5161 15.4378 36.1457 15.4162C34.1585 15.4065 32.4759 13.8978 32.1853 11.865H41.9193L41.9137 11.0664ZM48.5529 7.04718C47.0055 7.04718 45.9079 8.2992 45.9079 10.221V17.2708H43.5459V4.86205H45.8797V6.37731C46.4659 5.35459 47.5423 4.74095 48.6915 4.77429H49.5402V7.04718H48.5529ZM35.8939 6.75471C34.1202 6.75471 32.6577 8.036 32.2362 9.9286H39.5233C39.1272 8.036 37.6675 6.75471 35.8939 6.75471ZM18.2826 12.7364C18.9312 14.3432 20.4535 15.3865 22.1373 15.3782V15.3665C23.2341 15.3696 24.2869 14.9208 25.063 14.1194C25.8391 13.318 26.2745 12.2299 26.273 11.0957C26.2787 9.3545 25.2678 7.78183 23.713 7.11332C22.1582 6.44481 20.3669 6.8126 19.1771 8.0447C17.9872 9.2767 17.634 11.1295 18.2826 12.7364ZM67.0223 0.228516H55.4589V17.2538H67.0223V14.3335H58.5824V10.1166H66.7875V7.2956H58.5824V3.1488H67.0223V0.228516ZM104.499 13.4019C104.499 15.8082 102.502 17.5603 98.9568 17.5603C95.1288 17.5603 93.2445 15.8169 92.7946 13.1945H95.8786C96.2718 14.5904 97.2847 14.9963 99.0559 14.9963C100.465 14.9963 101.336 14.5028 101.336 13.7173C101.336 13.2237 101.028 12.9025 99.8736 12.6689L96.948 11.9709C94.2743 11.3898 93.0351 10.1983 93.0351 8.3673C93.0351 5.7186 95.2872 4.35191 98.4957 4.35191C102.208 4.35191 104.038 6.08655 104.205 8.7148H101.138C100.855 7.31891 99.7717 6.91299 98.3089 6.91299C96.9594 6.91299 96.2266 7.37732 96.2266 8.1337C96.2266 8.7177 96.7047 9.0098 98.2241 9.3018L100.841 9.85369C103.317 10.4086 104.499 11.6877 104.499 13.4019ZM91.9034 17.2421H88.5846C86.5022 17.2421 85.3479 15.9046 85.3479 14.2167V7.52923H83.0137V4.67903H85.3592V1.10169H88.4431V4.67903H91.9034V7.52923H88.4431V13.4019C88.4431 14.0707 88.893 14.3919 89.5975 14.3919H91.9034V17.2421ZM78.6056 5.81792V4.68485L81.681 4.67901V17.2362H78.6056V16.1002C77.5205 17.049 76.1429 17.5667 74.7209 17.5604C72.4039 17.6107 70.2417 16.3636 69.0689 14.3005C67.8961 12.2373 67.8961 9.6808 69.0689 7.61769C70.2417 5.55456 72.4039 4.30747 74.7209 4.35778C76.1427 4.35294 77.5197 4.87054 78.6056 5.81792ZM74.9755 14.8036C73.4667 14.8214 72.0969 13.8968 71.5078 12.463C70.9187 11.0291 71.227 9.3701 72.2882 8.2629C73.3495 7.15574 74.9535 6.81981 76.3489 7.41246C77.7443 8.0051 78.6547 9.409 78.6537 10.9664C78.6627 11.9803 78.2785 12.9559 77.5865 13.6756C76.8945 14.3953 75.9523 14.7994 74.9699 14.7978L74.9755 14.8036Z" fill="black"/>
</svg>
